<?xml version="1.0" standalone="no"?>
<!DOCTYPE svg PUBLIC "-//W3C//DTD SVG 20010904//EN"
 "http://www.w3.org/TR/2001/REC-SVG-20010904/DTD/svg10.dtd">
<svg version="1.0" xmlns="http://www.w3.org/2000/svg"
 width="810.000000pt" height="810.000000pt" viewBox="0 0 810.000000 810.000000"
 preserveAspectRatio="xMidYMid meet">
<metadata>
Created by potrace 1.10, written by Peter Selinger 2001-2011
</metadata>
<g transform="translate(0.000000,810.000000) scale(0.100000,-0.100000)"
fill="#008b8b" stroke="none">
<path d="M0 4050 l0 -4050 4050 0 4050 0 0 4050 0 4050 -4050 0 -4050 0 0
-4050z m780 3410 c13 -13 20 -33 20 -59 0 -64 -15 -71 -141 -71 -96 0 -111 -2
-129 -20 -20 -20 -21 -30 -20 -832 1 -922 9 -843 -86 -843 -44 0 -59 4 -70 19
-12 17 -14 146 -14 830 0 739 -1 811 -17 828 -14 15 -32 18 -134 18 -107 0
-119 2 -129 19 -15 29 -12 83 6 109 15 22 15 22 355 22 326 0 340 -1 359 -20z
m454 7 c16 -12 17 -38 16 -345 l-1 -332 25 -25 c25 -25 26 -25 210 -25 154 0
187 3 200 16 14 13 16 60 16 354 0 294 2 341 16 354 20 21 102 21 132 0 l22
-15 0 -888 c0 -694 -3 -891 -13 -904 -7 -11 -32 -20 -63 -23 -44 -6 -55 -3
-73 15 -21 21 -21 26 -21 464 0 331 -3 446 -12 455 -9 9 -69 12 -209 12 -193
0 -198 -1 -213 -22 -14 -20 -16 -80 -16 -458 0 -257 -4 -441 -10 -450 -7 -11
-27 -15 -71 -15 -109 1 -99 -89 -99 924 0 912 -1 900 40 914 29 11 106 7 124
-6z m1592 -1 c14 -11 19 -26 18 -60 -2 -76 -3 -76 -203 -76 -130 0 -182 -3
-195 -13 -16 -12 -18 -37 -18 -315 0 -223 3 -306 12 -317 10 -12 44 -15 176
-15 200 0 214 -5 214 -70 0 -82 -6 -85 -184 -86 -177 -2 -202 -6 -211 -35 -4
-12 -7 -164 -7 -338 0 -312 1 -316 22 -333 19 -16 44 -18 195 -18 148 0 174
-2 186 -17 18 -21 16 -100 -2 -118 -11 -11 -71 -14 -283 -16 -253 -2 -269 -1
-282 16 -12 16 -14 171 -14 904 0 809 1 886 17 903 15 17 37 18 278 18 210 0
265 -3 281 -14z m1352 -4 c10 -10 29 -68 45 -137 16 -66 37 -154 47 -195 11
-41 26 -115 34 -165 37 -220 56 -313 70 -352 8 -23 18 -63 21 -90 4 -26 14
-75 22 -108 8 -33 23 -109 34 -170 34 -206 49 -276 73 -358 13 -45 30 -113 36
-150 16 -90 7 -100 -86 -100 -99 0 -98 -1 -137 248 -22 138 -16 135 -224 135
-158 0 -165 -1 -187 -23 -17 -17 -25 -40 -30 -83 -11 -95 -48 -248 -64 -267
-13 -14 -26 -16 -81 -11 -36 4 -72 11 -78 17 -17 13 -16 48 2 110 8 29 21 86
29 127 8 41 22 102 30 135 18 72 62 309 72 385 3 30 12 72 20 92 7 21 18 66
24 101 5 34 19 98 30 142 10 44 31 150 45 235 14 85 32 180 39 210 7 30 21 84
29 120 9 36 19 82 22 102 4 27 13 42 33 53 38 20 108 19 130 -3z m820 2 l22
-15 0 -810 c0 -796 0 -809 20 -829 18 -18 33 -20 188 -20 92 0 172 -4 179 -8
31 -20 37 -96 10 -129 -7 -10 -75 -13 -278 -13 l-269 0 -10 26 c-6 16 -10 356
-10 900 0 861 0 874 20 894 25 25 95 27 128 4z m1177 -4 c10 -11 22 -42 25
-68 16 -114 54 -312 70 -367 10 -33 21 -80 25 -105 4 -25 13 -67 21 -95 7 -27
25 -115 39 -195 43 -249 54 -302 69 -344 13 -35 32 -128 85 -421 6 -33 18 -89
26 -125 13 -58 12 -67 -1 -89 -15 -22 -20 -23 -78 -16 -75 8 -93 24 -101 84
-9 71 -45 232 -61 269 l-14 32 -179 0 c-141 0 -181 -3 -190 -14 -16 -20 -49
-137 -62 -221 -15 -103 -27 -134 -52 -139 -96 -19 -133 -16 -142 14 -7 22 47
345 75 447 11 40 20 83 20 96 0 12 7 47 15 77 16 57 56 261 76 385 6 39 20
106 31 150 29 115 57 247 73 345 18 105 45 249 52 272 9 37 33 48 97 48 51 0
67 -4 81 -20z m809 4 c9 -8 27 -54 42 -102 24 -83 56 -174 94 -272 10 -25 32
-94 49 -155 18 -60 41 -130 51 -155 30 -68 61 -159 111 -320 17 -58 38 -114
45 -125 7 -11 17 -39 23 -62 12 -45 37 -77 52 -68 5 4 9 259 9 624 0 687 -5
638 70 648 30 4 45 1 60 -12 20 -18 20 -34 20 -910 0 -1003 7 -921 -77 -919
-24 1 -51 7 -58 15 -8 8 -31 61 -51 119 -20 58 -40 110 -46 117 -5 6 -29 73
-53 150 -24 76 -56 170 -71 208 -26 70 -36 99 -93 270 -16 50 -41 122 -55 160
-14 39 -36 105 -47 147 -24 87 -39 107 -60 82 -11 -14 -14 -126 -14 -625 0
-676 4 -634 -67 -646 -30 -4 -41 -1 -62 20 l-26 26 0 881 c0 867 0 880 20 900
25 25 110 28 134 4z m-1453 -2418 c93 -20 138 -46 198 -112 54 -62 107 -178
96 -213 -8 -25 -65 -52 -118 -54 -41 -2 -42 -1 -55 38 -14 45 -74 129 -112
157 -65 47 -152 32 -226 -41 -42 -41 -56 -65 -82 -138 -20 -55 -35 -124 -41
-183 -30 -279 -33 -331 -28 -390 4 -36 11 -132 17 -215 13 -207 24 -277 54
-370 50 -149 101 -195 219 -195 78 0 117 22 159 91 39 64 46 114 49 347 4 247
10 235 -124 236 -115 1 -127 8 -127 80 0 29 5 57 12 64 15 15 375 17 398 2 13
-8 15 -51 14 -292 -1 -243 -5 -297 -22 -380 -31 -149 -91 -231 -205 -283 -55
-26 -65 -27 -190 -23 -130 3 -133 4 -187 37 -65 39 -88 64 -135 149 -45 80
-73 188 -86 327 -14 153 -14 739 1 845 14 108 48 241 65 260 7 8 23 37 36 64
28 60 109 143 165 167 38 17 119 35 169 38 11 0 50 -6 86 -13z m-4747 -32 c11
-10 16 -34 16 -70 0 -49 -2 -55 -26 -64 -14 -6 -72 -10 -128 -10 -87 0 -105
-3 -120 -18 -15 -17 -16 -87 -16 -832 0 -596 -3 -816 -11 -826 -8 -9 -33 -14
-75 -14 -52 0 -65 3 -74 19 -7 13 -10 292 -10 833 0 620 -3 817 -12 826 -8 8
-51 12 -129 12 -137 0 -149 6 -149 76 0 90 -26 84 370 84 304 0 351 -2 364
-16z m456 -3 c7 -13 10 -257 10 -723 0 -601 2 -712 15 -763 39 -147 78 -187
187 -193 37 -3 79 -1 92 2 43 11 88 58 120 125 l31 66 5 740 c3 407 9 746 13
753 5 7 30 12 64 12 102 0 93 70 93 -744 0 -826 -3 -866 -67 -969 -43 -68
-108 -119 -176 -138 -24 -6 -97 -9 -176 -7 -119 3 -142 6 -181 27 -59 31 -85
55 -127 120 -64 100 -65 118 -70 940 -5 845 -14 771 93 771 52 0 65 -3 74 -19z
m1409 8 c115 -18 220 -97 266 -201 56 -124 55 -429 -1 -542 -50 -100 -119
-153 -249 -192 -39 -12 -43 -41 -15 -102 13 -26 29 -64 36 -85 7 -20 38 -86
69 -144 30 -59 55 -112 55 -117 0 -5 29 -68 64 -140 104 -213 130 -278 119
-295 -13 -21 -131 -27 -153 -8 -25 19 -119 218 -181 381 -10 27 -25 56 -32 65
-8 9 -36 70 -62 136 -26 66 -56 136 -66 155 -18 36 -52 70 -69 70 -12 0 -11
41 -10 -409 1 -434 6 -411 -91 -411 -47 0 -60 4 -69 19 -7 13 -10 314 -10 906
0 592 3 893 10 906 10 18 23 19 168 19 86 0 186 -5 221 -11z m825 -5 c14 -14
16 -110 16 -914 0 -1031 13 -920 -104 -920 -54 0 -67 3 -76 19 -14 27 -14
1785 0 1812 9 16 22 19 80 19 49 0 73 -4 84 -16z m543 -6 c13 -12 23 -31 23
-42 0 -12 19 -73 41 -136 22 -63 56 -162 75 -220 53 -159 60 -179 89 -255 15
-38 38 -104 51 -145 54 -175 160 -479 169 -488 3 -3 11 0 18 7 9 9 13 159 15
643 2 439 6 636 14 645 6 8 32 13 64 13 49 0 55 -2 64 -26 6 -16 10 -356 10
-899 0 -543 -4 -883 -10 -899 -9 -24 -14 -26 -68 -26 -73 0 -83 10 -112 110
-21 73 -41 126 -81 220 -11 25 -33 95 -50 155 -17 61 -41 135 -54 165 -38 92
-62 160 -98 280 -19 63 -45 140 -57 170 -13 30 -32 78 -42 105 -11 28 -27 61
-36 75 -15 23 -16 23 -23 5 -4 -11 -8 -298 -8 -637 -1 -693 4 -648 -76 -648
-81 0 -75 -78 -75 925 0 1010 -8 925 83 925 38 0 56 -5 74 -22z m-1581 -2429
c45 -14 79 -32 101 -54 32 -32 33 -36 33 -109 0 -99 -9 -103 -102 -40 -67 44
-76 48 -147 52 -100 6 -145 -8 -208 -63 -63 -55 -95 -129 -96 -220 -1 -146 74
-258 258 -381 140 -93 239 -170 271 -211 109 -138 137 -234 115 -405 -10 -85
-19 -114 -49 -168 -73 -132 -106 -166 -216 -222 -126 -64 -291 -64 -428 1 -78
36 -80 41 -76 151 4 93 17 99 91 42 101 -77 230 -94 337 -46 132 59 196 255
137 418 -13 35 -39 83 -57 106 -34 43 -177 154 -270 210 -86 52 -214 183 -244
251 -37 81 -51 200 -37 309 12 94 50 201 84 239 56 60 141 124 189 141 76 28
223 27 314 -1z m-2085 -20 c5 -8 9 -393 9 -911 0 -877 0 -898 -19 -908 -32
-16 -122 -12 -143 7 -17 15 -18 57 -18 909 l0 893 23 16 c28 20 134 16 148 -6z
m526 6 c15 -10 33 -48 53 -113 17 -53 40 -115 51 -138 10 -22 19 -46 19 -53 0
-7 9 -33 19 -59 11 -26 35 -101 55 -167 20 -66 43 -129 50 -140 7 -11 27 -69
45 -130 18 -60 47 -150 64 -200 17 -49 43 -126 58 -170 28 -83 52 -112 69 -85
6 9 10 255 10 627 l0 612 22 15 c12 9 36 16 53 16 17 0 41 -7 53 -16 l22 -15
0 -899 c0 -879 0 -900 -19 -910 -27 -14 -104 -13 -124 3 -9 6 -32 62 -50 122
-19 61 -40 121 -46 134 -7 13 -44 116 -83 230 -38 113 -87 258 -109 321 -21
63 -39 121 -39 128 0 8 -7 28 -15 45 -24 53 -66 169 -82 230 -16 58 -37 74
-50 40 -4 -10 -7 -292 -8 -626 0 -591 -1 -609 -19 -623 -11 -8 -39 -14 -62
-14 -79 0 -74 -67 -74 932 l0 887 22 15 c29 20 87 20 115 1z m2715 -2 c13 -11
18 -30 18 -64 0 -73 -11 -79 -144 -79 -74 0 -116 -4 -124 -12 -9 -9 -12 -206
-12 -825 0 -800 0 -813 -20 -833 -15 -15 -33 -20 -78 -20 -32 0 -63 5 -70 12
-9 9 -12 206 -12 826 0 541 -3 820 -10 833 -10 17 -22 19 -126 19 -63 0 -124
5 -135 10 -27 15 -28 124 -1 139 10 7 144 11 356 11 302 0 341 -2 358 -17z
m450 0 c17 -15 18 -57 18 -906 0 -1012 8 -927 -85 -927 -32 0 -57 5 -64 13 -7
10 -11 273 -11 913 -1 841 0 899 16 911 26 19 104 16 126 -4z m1042 1 c25 -24
22 -120 -3 -134 -11 -5 -74 -10 -140 -10 -109 0 -121 -2 -131 -19 -7 -13 -10
-292 -10 -833 0 -620 -3 -817 -12 -826 -15 -15 -112 -16 -139 -2 -19 10 -19
30 -19 830 0 731 -2 820 -16 834 -12 13 -38 16 -122 16 -133 0 -152 10 -152
76 0 31 6 50 20 64 19 19 33 20 364 20 300 0 347 -2 360 -16z m447 -1 c6 -6
10 -244 10 -679 -1 -368 3 -710 8 -761 17 -171 82 -245 216 -244 75 0 124 19
160 63 57 68 64 174 65 952 0 741 -7 686 87 686 40 0 58 -5 73 -20 20 -20 20
-33 20 -681 0 -764 -6 -860 -64 -983 -42 -89 -63 -111 -145 -150 -63 -30 -71
-31 -196 -31 -119 0 -135 2 -185 26 -121 57 -160 114 -189 278 -20 108 -21
152 -21 822 l0 708 23 16 c24 18 119 17 138 -2z m1637 1 c17 -12 22 -25 22
-62 0 -75 -3 -76 -145 -82 -97 -4 -128 -8 -135 -20 -6 -9 -10 -336 -10 -832 0
-798 0 -818 -19 -828 -25 -13 -97 -13 -122 0 -19 10 -19 30 -19 835 0 805 0
825 -19 835 -11 5 -70 10 -132 10 -91 0 -116 3 -131 17 -23 20 -24 90 -2 121
15 22 15 22 352 22 289 0 341 -2 360 -16z m882 -4 c13 -13 20 -33 20 -60 0
-27 -7 -47 -20 -60 -19 -19 -33 -20 -205 -20 -166 0 -185 -2 -192 -17 -11 -23
-1 -619 10 -630 5 -4 86 -7 180 -5 204 4 213 1 210 -73 -3 -75 -2 -75 -203
-75 -132 0 -180 -3 -188 -13 -8 -10 -18 -526 -13 -669 2 -43 23 -48 210 -48
205 0 206 0 205 -83 -1 -78 2 -77 -297 -77 -159 0 -266 4 -278 10 -19 10 -19
31 -19 916 l0 905 23 9 c12 5 138 9 280 9 244 1 258 0 277 -19z"/>
<path d="M4097 7103 c-20 -39 -34 -114 -52 -285 -9 -80 -20 -160 -25 -178 -5
-17 -12 -63 -15 -103 -4 -40 -18 -116 -31 -170 -31 -127 -33 -175 -9 -193 23
-17 249 -20 290 -4 24 9 26 15 22 43 -30 184 -39 230 -47 251 -5 14 -16 78
-25 143 -9 65 -22 154 -30 198 -8 44 -17 112 -20 150 -7 84 -24 163 -36 170
-4 3 -15 -7 -22 -22z"/>
<path d="M6065 7069 c-4 -6 -11 -57 -15 -113 -5 -57 -16 -130 -24 -163 -22
-85 -84 -491 -88 -572 -2 -53 18 -61 153 -61 128 0 145 3 159 31 12 21 -32
310 -75 504 -13 61 -27 130 -30 155 -3 25 -12 77 -21 115 -9 39 -18 80 -20 93
-5 23 -28 30 -39 11z"/>
<path d="M2431 4856 c-18 -22 -17 -602 1 -624 21 -25 162 -11 221 23 67 38 92
76 111 169 20 98 20 126 0 236 -19 104 -36 134 -94 175 -39 27 -52 30 -135 33
-74 3 -94 1 -104 -12z"/>
</g>
</svg>
