<?xml version="1.0" standalone="no"?>
<!DOCTYPE svg PUBLIC "-//W3C//DTD SVG 20010904//EN"
 "http://www.w3.org/TR/2001/REC-SVG-20010904/DTD/svg10.dtd">
<svg version="1.0" xmlns="http://www.w3.org/2000/svg"
 width="675.000000pt" height="675.000000pt" viewBox="0 0 675.000000 675.000000"
 preserveAspectRatio="xMidYMid meet">
<metadata>
Created by potrace 1.10, written by Peter Selinger 2001-2011
</metadata>
<g transform="translate(0.000000,675.000000) scale(0.100000,-0.100000)"
fill="#008b8b" stroke="none">
<path d="M52 4661 c-3 -8 2 -19 11 -26 10 -7 17 -19 17 -28 0 -9 5 -19 11 -22
5 -4 15 -17 20 -28 5 -12 18 -35 29 -52 11 -16 25 -42 31 -57 6 -16 15 -28 20
-28 5 0 9 -7 9 -14 0 -8 12 -34 28 -58 15 -24 33 -52 40 -63 7 -11 17 -32 23
-47 6 -16 15 -28 20 -28 5 0 9 -7 9 -14 0 -8 12 -34 28 -58 15 -24 33 -52 40
-63 7 -11 17 -32 23 -47 6 -16 15 -28 20 -28 5 0 9 -7 9 -14 0 -8 12 -34 28
-58 47 -75 52 -82 63 -108 5 -13 13 -27 17 -30 4 -3 13 -16 19 -30 7 -14 26
-47 43 -75 16 -27 35 -62 41 -77 6 -16 15 -28 20 -28 5 0 9 -9 9 -19 0 -11 5
-23 11 -26 5 -4 15 -17 20 -28 5 -12 18 -35 28 -52 11 -16 30 -50 42 -75 13
-25 35 -63 49 -85 14 -22 31 -49 38 -60 7 -11 17 -32 23 -47 6 -16 15 -28 20
-28 5 0 9 -7 9 -14 0 -8 12 -34 28 -58 15 -24 33 -52 40 -63 7 -11 17 -32 23
-47 6 -16 15 -28 20 -28 5 0 9 -7 9 -14 0 -8 12 -34 28 -58 47 -74 52 -82 61
-105 6 -11 15 -24 20 -28 6 -3 11 -12 11 -20 0 -8 12 -31 26 -52 14 -21 30
-47 35 -58 5 -11 18 -33 29 -50 11 -16 22 -37 26 -45 3 -8 10 -22 15 -30 5 -8
14 -24 19 -35 6 -11 19 -33 30 -50 11 -16 25 -42 31 -57 6 -16 15 -28 20 -28
5 0 9 -7 9 -14 0 -8 12 -34 28 -58 47 -75 52 -82 63 -108 5 -13 13 -27 17 -30
4 -3 13 -16 19 -30 7 -14 26 -47 42 -75 17 -27 36 -61 41 -75 6 -13 14 -27 18
-30 4 -3 13 -16 19 -30 7 -14 26 -47 42 -75 17 -27 35 -59 41 -70 6 -11 26
-47 45 -80 19 -33 40 -69 45 -80 6 -11 19 -33 30 -50 11 -16 22 -37 26 -45 3
-8 10 -22 15 -30 5 -8 14 -25 19 -38 13 -31 30 -24 57 24 44 80 79 145 118
221 22 43 43 80 46 83 4 3 19 30 34 60 14 30 42 82 60 115 19 33 51 94 72 135
21 41 41 77 44 80 4 3 19 30 34 60 14 30 42 82 60 115 19 33 51 94 72 135 21
41 41 77 44 80 4 3 19 30 34 60 14 30 42 82 60 115 19 33 51 94 72 135 21 41
41 77 45 80 4 3 12 17 17 30 6 14 15 32 20 40 5 8 12 22 16 30 3 8 21 42 40
75 19 33 46 84 60 112 15 29 30 55 36 58 5 4 9 15 9 26 0 10 4 19 9 19 5 0 14
12 20 28 6 15 15 34 20 42 5 8 12 22 16 30 3 8 21 42 40 75 19 33 46 83 60
110 14 28 41 77 60 110 19 33 37 66 40 73 12 29 17 40 50 97 19 33 41 74 50
92 32 62 40 56 101 -69 16 -32 32 -58 36 -58 4 0 8 -8 8 -19 0 -10 7 -24 15
-31 8 -7 15 -21 15 -31 0 -10 5 -21 11 -24 5 -4 15 -17 20 -28 5 -12 25 -49
44 -82 19 -33 37 -67 40 -75 4 -8 10 -22 15 -30 5 -8 21 -37 35 -65 14 -27 29
-57 34 -65 5 -8 12 -22 15 -30 4 -8 15 -28 25 -45 11 -16 38 -66 61 -110 23
-44 57 -107 75 -140 19 -33 37 -67 40 -75 4 -8 11 -22 16 -30 5 -8 14 -26 20
-40 5 -13 13 -27 17 -30 4 -3 24 -39 45 -80 21 -41 54 -102 72 -135 19 -33 37
-67 40 -75 4 -8 11 -22 16 -30 5 -8 14 -26 20 -40 5 -13 13 -27 17 -30 4 -3
24 -39 45 -80 21 -41 54 -102 72 -135 31 -54 38 -68 51 -100 2 -5 20 -37 39
-70 19 -33 46 -82 60 -110 14 -27 41 -77 60 -110 31 -54 38 -68 51 -100 2 -5
20 -37 39 -70 19 -33 46 -82 60 -110 14 -27 29 -57 34 -65 5 -8 12 -22 15 -30
4 -8 15 -28 26 -45 19 -29 28 -47 36 -73 4 -15 24 -16 24 -1 0 6 13 31 30 56
16 24 30 50 30 57 0 6 5 17 11 23 13 13 23 30 59 100 14 26 28 50 32 53 4 3
12 17 18 30 5 14 24 48 41 75 16 28 35 61 42 75 6 14 15 27 19 30 4 3 12 17
18 30 5 14 24 48 41 75 16 28 35 61 42 75 6 14 15 27 19 30 4 3 12 17 18 30 5
14 24 48 41 75 16 28 35 61 42 75 6 14 15 27 19 30 4 3 12 17 18 30 5 14 19
39 30 55 11 17 31 53 45 80 14 28 35 64 45 80 11 17 31 53 45 80 28 54 36 68
75 130 14 22 36 60 48 85 25 50 34 65 75 128 15 24 27 49 27 57 0 8 5 17 11
20 5 4 14 17 20 28 5 12 13 29 19 37 25 38 93 155 101 174 5 12 18 35 29 51
11 17 31 53 45 80 14 28 35 64 45 80 11 17 24 39 30 50 5 11 26 47 45 80 19
33 39 69 45 80 6 11 24 43 41 70 16 28 37 64 45 80 8 17 23 44 34 60 10 17 29
50 42 75 13 25 26 47 30 50 4 3 12 17 18 30 5 14 24 48 41 75 16 28 35 61 42
75 6 14 15 27 19 30 4 3 12 17 18 30 5 14 19 39 30 55 10 17 29 50 42 75 13
25 26 47 29 50 6 5 12 17 59 107 14 26 31 54 38 62 41 43 199 41 -3287 44
-2809 2 -3294 0 -3299 -12z"/>
</g>
</svg>
