<?xml version="1.0" standalone="no"?>
<!DOCTYPE svg PUBLIC "-//W3C//DTD SVG 20010904//EN"
 "http://www.w3.org/TR/2001/REC-SVG-20010904/DTD/svg10.dtd">
<svg version="1.0" xmlns="http://www.w3.org/2000/svg"
 width="900.000000pt" height="900.000000pt" viewBox="0 0 900.000000 900.000000"
 preserveAspectRatio="xMidYMid meet">
<metadata>
Created by potrace 1.10, written by Peter Selinger 2001-2011
</metadata>
<g transform="translate(0.000000,900.000000) scale(0.100000,-0.100000)"
fill="#008b8b" stroke="none">
<path d="M0 4500 l0 -4500 4500 0 4500 0 0 4500 0 4500 -4500 0 -4500 0 0
-4500z m8004 1295 c3 -8 16 -15 30 -15 13 0 26 -7 30 -15 3 -8 13 -15 23 -15
22 0 123 -99 123 -121 0 -9 7 -22 15 -29 8 -7 15 -20 15 -30 0 -10 7 -23 15
-30 11 -9 15 -35 15 -105 0 -70 -4 -96 -15 -105 -8 -7 -15 -20 -15 -30 0 -10
-7 -23 -15 -30 -8 -7 -15 -20 -15 -28 0 -22 -100 -122 -121 -122 -9 0 -22 -7
-29 -15 -7 -8 -20 -15 -30 -15 -10 0 -23 -7 -30 -15 -9 -11 -35 -15 -105 -15
-70 0 -96 4 -105 15 -7 8 -20 15 -30 15 -10 0 -23 7 -30 15 -7 8 -26 15 -42
15 -25 0 -53 -23 -174 -144 -79 -79 -144 -151 -144 -159 0 -8 7 -20 15 -27 8
-7 15 -20 15 -30 0 -10 7 -23 15 -30 11 -9 15 -33 15 -90 0 -57 -4 -81 -15
-90 -8 -7 -15 -23 -15 -35 0 -13 -7 -25 -15 -29 -8 -3 -15 -13 -15 -23 0 -26
-96 -123 -120 -123 -11 0 -23 -7 -26 -15 -4 -8 -17 -15 -30 -15 -14 0 -27 -7
-30 -15 -5 -12 -27 -15 -109 -15 -82 0 -104 3 -109 15 -3 8 -16 15 -29 15 -14
0 -30 7 -37 15 -7 8 -18 15 -26 15 -21 0 -114 99 -114 121 0 11 -7 22 -15 25
-8 4 -15 17 -15 30 0 12 -6 27 -14 31 -8 4 -16 26 -18 48 -3 39 -4 40 -42 43
-21 2 -45 10 -53 18 -9 8 -34 14 -62 14 -31 0 -53 5 -61 15 -8 9 -30 15 -59
15 -26 0 -52 5 -59 12 -6 6 -33 14 -59 16 -27 2 -53 8 -59 13 -6 5 -40 12 -75
15 -35 4 -70 11 -77 17 -7 5 -38 10 -69 11 -49 1 -58 -2 -68 -21 -22 -42 -104
-123 -125 -123 -11 0 -23 -7 -26 -15 -4 -8 -17 -15 -30 -15 -14 0 -27 -7 -30
-15 -5 -12 -26 -15 -104 -15 -74 0 -100 4 -110 15 -7 8 -23 15 -35 15 -13 0
-25 7 -29 15 -3 8 -13 15 -23 15 -9 0 -32 14 -50 32 -27 27 -33 29 -39 15 -3
-10 -17 -17 -30 -17 -14 0 -27 -7 -30 -15 -4 -8 -16 -15 -28 -15 -12 0 -33
-13 -46 -30 -14 -16 -35 -29 -48 -30 -12 0 -25 -7 -28 -15 -4 -8 -17 -15 -30
-15 -14 0 -27 -7 -30 -15 -4 -8 -14 -15 -23 -15 -9 0 -31 -13 -49 -30 -18 -16
-42 -30 -53 -30 -11 0 -22 -7 -25 -15 -4 -8 -14 -15 -23 -15 -9 0 -31 -13 -49
-30 -18 -16 -42 -30 -53 -30 -11 0 -22 -7 -25 -15 -4 -8 -14 -15 -24 -15 -10
0 -25 -7 -34 -15 -8 -8 -21 -15 -28 -15 -7 0 -28 -13 -46 -30 -18 -16 -42 -30
-53 -30 -11 0 -22 -7 -25 -15 -4 -8 -14 -15 -24 -15 -11 0 -21 -4 -24 -9 -4
-5 -27 -19 -52 -31 -25 -13 -48 -29 -51 -36 -3 -8 -16 -14 -29 -14 -14 0 -27
-7 -30 -15 -4 -8 -14 -15 -24 -15 -11 0 -22 -5 -25 -10 -4 -6 -27 -20 -52 -32
-24 -12 -47 -27 -50 -35 -3 -7 -13 -13 -23 -13 -11 0 -21 -4 -24 -9 -4 -5 -27
-19 -52 -31 -25 -13 -48 -29 -51 -36 -3 -8 -15 -14 -27 -14 -11 0 -31 -11 -43
-24 -20 -21 -21 -25 -8 -36 22 -18 22 -205 0 -214 -8 -3 -15 -16 -15 -30 0
-13 -7 -26 -15 -30 -8 -3 -15 -13 -15 -23 0 -23 -99 -123 -122 -123 -10 0 -21
-7 -24 -15 -4 -8 -16 -15 -29 -15 -12 0 -28 -7 -35 -15 -18 -22 -205 -22 -214
0 -3 8 -16 15 -30 15 -13 0 -26 7 -30 15 -3 8 -13 15 -23 15 -23 0 -123 99
-123 122 0 10 -7 21 -15 24 -8 4 -15 16 -15 29 0 12 -7 28 -15 35 -11 9 -15
35 -15 105 0 70 4 96 15 105 8 7 15 27 15 44 0 26 -14 45 -84 114 -47 45 -91
82 -98 82 -8 0 -55 41 -105 90 -51 50 -98 90 -106 90 -8 0 -56 41 -106 90 -51
50 -98 90 -105 90 -7 0 -41 27 -74 61 -48 47 -63 57 -68 45 -3 -9 -16 -16 -29
-16 -12 0 -28 -7 -35 -15 -7 -8 -27 -15 -45 -15 -18 0 -38 -7 -45 -15 -9 -11
-33 -15 -90 -15 -57 0 -81 4 -90 15 -7 8 -20 15 -30 15 -10 0 -23 7 -30 16
-12 13 -20 8 -67 -42 -29 -32 -53 -63 -53 -69 0 -7 -47 -61 -105 -121 -58 -59
-105 -114 -105 -120 0 -6 -40 -54 -90 -105 -49 -52 -90 -99 -90 -105 0 -6 -45
-58 -100 -115 -65 -67 -96 -107 -90 -113 6 -6 10 -20 10 -33 0 -13 7 -26 15
-29 8 -4 15 -17 15 -30 0 -14 7 -27 15 -30 12 -5 15 -27 15 -109 0 -82 -3
-104 -15 -109 -8 -3 -15 -16 -15 -30 0 -13 -7 -26 -15 -30 -8 -3 -15 -13 -15
-23 0 -23 -99 -123 -122 -123 -10 0 -21 -7 -24 -15 -4 -8 -17 -15 -30 -15 -14
0 -27 -7 -30 -15 -5 -12 -26 -15 -104 -15 -74 0 -100 4 -110 15 -7 8 -23 15
-35 15 -13 0 -25 7 -29 15 -3 8 -13 15 -23 15 -23 0 -123 99 -123 122 0 10 -7
21 -15 24 -8 4 -15 16 -15 29 0 12 -7 28 -15 35 -22 18 -22 192 0 210 8 7 15
20 15 30 0 10 7 23 15 30 8 7 15 20 15 28 0 23 100 122 122 122 10 0 21 7 24
15 4 8 16 15 29 15 12 0 28 7 35 15 9 11 35 15 105 15 70 0 96 -4 105 -15 7
-8 27 -15 44 -15 26 0 45 14 114 84 45 47 82 91 82 98 0 7 47 61 105 121 58
59 105 114 105 121 0 8 41 55 90 105 50 51 90 98 90 106 0 7 27 40 60 73 48
47 60 65 60 91 0 19 -6 34 -15 37 -10 4 -15 20 -15 45 0 26 -5 42 -15 45 -12
5 -15 25 -15 94 0 69 3 89 15 94 10 3 15 19 15 45 0 25 5 41 15 45 8 3 15 14
15 25 0 24 98 120 123 121 10 0 20 7 23 15 4 8 16 15 29 15 12 0 28 7 35 15 9
11 35 15 105 15 70 0 96 -4 105 -15 7 -8 23 -15 35 -15 13 0 25 -7 29 -15 3
-8 13 -15 23 -15 21 0 93 -68 93 -90 0 -8 14 -28 30 -44 22 -21 30 -39 30 -63
0 -21 6 -36 15 -39 12 -5 15 -25 15 -89 0 -61 -4 -86 -15 -95 -9 -8 -15 -30
-15 -57 0 -39 5 -51 39 -84 21 -22 45 -39 52 -39 8 0 63 -47 123 -105 59 -58
113 -105 120 -105 6 0 54 -40 105 -90 51 -49 99 -90 106 -90 7 0 52 -38 101
-85 58 -56 92 -81 98 -75 6 6 20 10 33 10 13 0 26 7 29 15 4 8 17 15 30 15 14
0 27 7 30 15 5 12 27 15 109 15 82 0 104 -3 109 -15 3 -8 16 -15 30 -15 13 0
26 -7 30 -15 3 -8 13 -15 23 -15 9 0 31 -14 48 -30 l31 -30 29 30 c16 16 36
30 46 30 9 0 22 7 29 15 7 8 20 15 30 15 10 0 23 7 30 15 7 8 20 15 29 15 9 0
29 14 45 30 16 17 38 30 48 30 10 0 21 7 24 15 4 8 17 15 30 15 14 0 27 7 30
15 4 8 16 15 28 15 12 0 33 13 46 30 14 16 35 29 48 30 12 0 25 7 28 15 4 8
17 15 30 15 14 0 27 7 30 15 4 8 13 15 21 15 8 0 32 14 53 30 21 17 45 30 54
30 9 0 19 7 22 15 4 8 16 15 28 15 12 0 33 13 46 30 14 16 35 29 48 30 12 0
25 7 28 15 4 8 14 15 24 15 10 0 25 7 34 15 8 8 21 15 28 15 7 0 28 14 46 30
18 17 42 30 53 30 11 0 22 7 25 15 4 8 17 15 30 15 14 0 27 7 30 15 4 8 14 15
23 15 9 0 31 14 49 30 18 17 39 30 46 30 8 0 19 7 26 15 7 8 20 15 29 15 9 1
29 12 46 25 25 21 27 25 12 31 -14 5 -17 21 -17 104 0 74 4 100 15 110 8 7 15
20 15 30 0 10 7 23 15 30 8 7 15 20 15 28 0 22 100 122 121 122 9 0 22 7 29
15 7 8 20 15 30 15 10 0 23 7 30 15 10 11 36 15 110 15 78 0 99 -3 104 -15 3
-8 16 -15 30 -15 13 0 26 -7 30 -15 3 -8 13 -15 23 -15 23 0 123 -99 123 -122
0 -10 7 -21 15 -24 8 -4 15 -17 15 -30 0 -12 6 -27 14 -31 9 -5 16 -28 18 -63
l3 -55 55 -3 c35 -2 58 -9 63 -18 5 -9 25 -14 61 -14 39 0 55 -4 60 -15 4 -11
21 -15 60 -15 39 0 55 -4 60 -15 4 -11 21 -15 60 -15 39 0 55 -4 60 -15 4 -11
20 -15 56 -15 33 0 57 -6 67 -15 11 -12 32 -15 77 -13 52 3 61 6 64 23 5 27
102 125 124 125 10 0 21 7 24 15 4 8 17 15 30 15 14 0 27 7 30 15 5 12 27 15
109 15 82 0 104 -3 109 -15 3 -8 14 -15 24 -15 11 0 25 -7 32 -15 7 -8 19 -15
27 -15 8 0 86 71 174 159 136 135 157 160 144 171 -8 7 -15 21 -15 32 0 10 -7
21 -15 24 -12 5 -15 27 -15 109 0 82 3 104 15 109 8 3 15 16 15 30 0 13 7 26
15 30 8 3 15 14 15 25 0 11 23 43 50 71 28 27 60 50 71 50 11 0 22 7 25 15 4
8 17 15 30 15 14 0 27 7 30 15 5 12 27 15 109 15 82 0 104 -3 109 -15z"/>
</g>
</svg>
