<?xml version="1.0" standalone="no"?>
<!DOCTYPE svg PUBLIC "-//W3C//DTD SVG 20010904//EN"
 "http://www.w3.org/TR/2001/REC-SVG-20010904/DTD/svg10.dtd">
<svg version="1.0" xmlns="http://www.w3.org/2000/svg"
 width="900.000000pt" height="900.000000pt" viewBox="0 0 900.000000 900.000000"
 preserveAspectRatio="xMidYMid meet">
<metadata>
Created by potrace 1.10, written by Peter Selinger 2001-2011
</metadata>
<g transform="translate(0.000000,900.000000) scale(0.100000,-0.100000)"
fill="#008b8b" stroke="none">
<path d="M0 4500 l0 -4500 4500 0 4500 0 0 4500 0 4500 -4500 0 -4500 0 0
-4500z m2154 1914 c14 -14 16 -77 16 -549 0 -473 -2 -535 -16 -549 -14 -14
-94 -16 -772 -14 l-757 3 -3 550 c-1 303 0 556 3 563 3 9 165 12 759 12 673 0
756 -2 770 -16z m3077 6 c18 -10 19 -27 19 -553 0 -409 -3 -546 -12 -555 -9
-9 -193 -12 -765 -12 -734 0 -753 0 -763 19 -6 13 -10 202 -10 546 0 344 4
533 10 546 10 19 29 19 756 19 495 0 752 -3 765 -10z m3099 -9 c14 -27 14
-1065 0 -1092 -10 -19 -29 -19 -763 -19 -572 0 -756 3 -765 12 -9 9 -12 146
-12 555 0 506 1 543 18 552 11 7 275 10 764 11 729 0 748 0 758 -19z m-3999
-1371 c18 -10 19 -27 19 -550 0 -523 -1 -540 -19 -550 -14 -7 -604 -9 -1863
-8 l-1843 3 -3 545 c-1 300 0 551 3 558 6 16 3675 18 3706 2z m3999 -9 c6 -13
10 -201 10 -541 0 -340 -4 -528 -10 -541 -11 -19 -42 -19 -1846 -19 -1246 0
-1842 3 -1855 10 -18 10 -19 27 -19 550 0 503 1 540 18 549 11 7 625 10 1854
11 1806 0 1837 0 1848 -19z m0 -1370 c16 -31 14 -1062 -2 -1084 -12 -16 -252
-17 -3858 -15 l-3845 3 -3 545 c-1 300 0 551 3 558 3 9 783 12 3849 12 3792 0
3845 0 3856 -19z"/>
</g>
</svg>
