<?xml version="1.0" standalone="no"?>
<!DOCTYPE svg PUBLIC "-//W3C//DTD SVG 20010904//EN"
 "http://www.w3.org/TR/2001/REC-SVG-20010904/DTD/svg10.dtd">
<svg version="1.0" xmlns="http://www.w3.org/2000/svg"
 width="900.000000pt" height="900.000000pt" viewBox="0 0 900.000000 900.000000"
 preserveAspectRatio="xMidYMid meet">
<metadata>
Created by potrace 1.10, written by Peter Selinger 2001-2011
</metadata>
<g transform="translate(0.000000,900.000000) scale(0.100000,-0.100000)"
fill="#008b8b" stroke="none">
<path d="M0 4470 l0 -2330 464 0 c278 0 475 4 490 10 l26 10 0 2308 c0 1782
-3 2311 -12 2320 -9 9 -132 12 -490 12 l-478 0 0 -2330z"/>
<path d="M1591 6786 c-8 -10 -11 -419 -9 -1580 3 -1380 5 -1568 18 -1576 9 -6
201 -9 490 -7 l475 2 0 1585 0 1585 -481 3 c-398 2 -483 0 -493 -12z"/>
<path d="M3192 6788 c-9 -9 -12 -528 -12 -2320 0 -2271 0 -2307 19 -2318 23
-12 939 -14 959 -2 10 7 12 479 10 2328 l-3 2319 -480 3 c-366 2 -484 -1 -493
-10z"/>
<path d="M4785 6788 c-3 -7 -4 -215 -3 -463 l3 -450 490 0 490 0 3 454 c2 357
0 456 -10 463 -7 4 -228 8 -491 8 -373 0 -479 -3 -482 -12z"/>
<path d="M6415 6788 c-3 -7 -4 -215 -3 -463 l3 -450 1293 -3 1292 -2 0 465 0
465 -1290 0 c-1023 0 -1292 -3 -1295 -12z"/>
<path d="M4792 5298 c-17 -17 -17 -3129 0 -3146 16 -16 929 -17 959 -2 19 11
19 39 19 1579 0 1421 -1 1569 -16 1575 -9 3 -226 6 -483 6 -350 0 -470 -3
-479 -12z"/>
<path d="M6417 5303 c-4 -3 -7 -714 -7 -1579 0 -1424 1 -1572 16 -1578 27 -10
921 -7 948 4 l26 10 0 1563 c0 1202 -3 1566 -12 1575 -9 9 -131 12 -488 12
-262 0 -480 -3 -483 -7z"/>
</g>
</svg>
