<svg id="SvgjsSvg1001" width="288" height="288" xmlns="http://www.w3.org/2000/svg" version="1.1" xmlns:xlink="http://www.w3.org/1999/xlink" xmlns:svgjs="http://svgjs.com/svgjs"><defs id="SvgjsDefs1002"></defs><g id="SvgjsG1008" transform="matrix(1,0,0,1,0,0)"><svg xmlns="http://www.w3.org/2000/svg" fill="none" viewBox="0 0 320 320" width="288" height="288"><path fill="#e0115f" fill-rule="evenodd" d="M163.313 160c0 3.314 2.667 5.981 8 11.314l22.628 22.627 50.912-50.911-33.942-33.941-39.598 39.598c-5.333 5.333-8 8-8 11.313zm8 79.196c-5.333-5.333-8-8-8-11.313 0-3.314 2.667-5.981 8-11.314l22.628-22.628 33.941 33.942-22.627 22.627c-5.334 5.333-8 8-11.314 8s-5.98-2.667-11.314-8l-11.314-11.314zm56.569-11.314l-33.941-33.941L227.882 160l22.628 22.627c5.333 5.334 8 8 8 11.314s-2.667 5.981-8 11.314l-22.628 22.627z" clip-rule="evenodd" class="color152175 svgShape"></path><path fill="#e0115f" fill-rule="evenodd" d="M197.254 126.059c0 3.314 2.667 5.98 8 11.314L227.881 160l33.941-33.941-22.627-22.628c-5.333-5.333-8-8-11.314-8-3.313 0-5.98 2.667-11.313 8l-11.314 11.314c-5.333 5.333-8 8-8 11.314zm8 79.196c-5.333-5.333-8-8-8-11.314s2.667-5.98 8-11.314L227.881 160l33.941 33.941-22.627 22.628c-5.333 5.333-8 8-11.314 8-3.313 0-5.98-2.667-11.313-8l-11.314-11.314zM227.882 160l33.941-33.941 22.627 22.628c5.333 5.333 8 8 8 11.313 0 3.314-2.667 5.981-8 11.314l-22.627 22.627L227.882 160zM156.685 160c0-3.313-2.666-5.98-8-11.313l-22.627-22.628-50.912 50.912 33.942 33.941 39.597-39.598c5.334-5.333 8-8 8-11.314zm-8-79.196c5.334 5.334 8 8 8 11.314s-2.666 5.98-8 11.314l-22.627 22.627-33.941-33.94 22.627-22.628c5.334-5.334 8-8 11.314-8s5.98 2.666 11.314 8l11.313 11.313zM92.117 92.118l33.941 33.941-33.941 33.942-22.628-22.628c-5.333-5.333-8-8-8-11.313 0-3.314 2.667-5.981 8-11.314l22.628-22.628z" clip-rule="evenodd" class="color2A3DA3 svgShape"></path><path fill="#e0115f" fill-rule="evenodd" d="M122.745 193.94c0-3.313-2.667-5.98-8-11.313l-22.627-22.628-16.97 16.971-16.971 16.97 22.627 22.628c5.333 5.333 8 8 11.314 8 3.313 0 5.98-2.667 11.313-8l11.314-11.314c5.333-5.333 8-8 8-11.314zm-8-79.196c5.333 5.334 8 8 8 11.314s-2.667 5.98-8 11.314l-22.627 22.627-33.941-33.941 22.627-22.627c5.333-5.334 8-8 11.314-8 3.313 0 5.98 2.666 11.313 8l11.314 11.313zm-22.627 45.255l-16.97 16.971-16.971 16.97-22.628-22.627c-5.334-5.334-8-8-8-11.314s2.666-5.98 8-11.314l22.627-22.627 33.942 33.941z" clip-rule="evenodd" class="color152175 svgShape"></path></svg></g></svg>